<?xml version="1.0" standalone="no"?>
<!DOCTYPE svg PUBLIC "-//W3C//DTD SVG 20010904//EN"
 "http://www.w3.org/TR/2001/REC-SVG-20010904/DTD/svg10.dtd">
<svg version="1.0" xmlns="http://www.w3.org/2000/svg"
 width="16.000000pt" height="16.000000pt" viewBox="0 0 16.000000 16.000000"
 preserveAspectRatio="xMidYMid meet">
<metadata>
Created by potrace 1.11, written by Peter Selinger 2001-2013
</metadata>
<g transform="translate(0.000000,16.000000) scale(0.003125,-0.003125)"
fill="#000000" stroke="none">
<path d="M2470 4257 c-3 -3 -36 -7 -75 -11 -234 -22 -443 -122 -700 -336 -68
-56 -247 -244 -323 -339 -329 -409 -577 -958 -657 -1456 -10 -66 -14 -356 -5
-415 14 -96 20 -118 46 -192 46 -126 111 -210 216 -278 78 -51 170 -80 304
-95 33 -4 70 -9 84 -11 193 -34 368 20 441 134 42 66 48 96 69 315 19 197 47
302 105 393 111 173 296 253 555 241 129 -6 146 -9 245 -38 124 -37 234 -96
338 -182 59 -49 90 -97 112 -169 26 -90 26 -92 30 -358 6 -348 28 -447 120
-528 71 -62 174 -82 323 -62 48 6 103 13 122 16 350 46 520 217 591 599 20
107 16 600 -6 635 -2 3 -6 26 -10 50 -26 183 -122 513 -201 688 -13 29 -24 54
-24 56 0 2 -22 51 -50 109 -68 143 -167 319 -257 457 -291 443 -593 686 -942
756 -69 14 -440 31 -451 21z m220 -660 c87 -23 114 -34 173 -69 76 -46 173
-138 223 -213 73 -111 107 -223 106 -350 -1 -146 -58 -268 -169 -358 -80 -65
-147 -89 -253 -91 -84 0 -206 10 -222 20 -4 3 -16 7 -25 9 -41 8 -147 49 -201
77 -253 135 -364 286 -356 484 5 136 53 236 164 344 95 93 220 150 360 162 35
3 172 -7 200 -15z"/>
</g>
</svg>
